<svg xmlns="http://www.w3.org/2000/svg" xmlns:xlink="http://www.w3.org/1999/xlink" width="500" zoomAndPan="magnify" viewBox="0 0 375 374.999991" height="500" preserveAspectRatio="xMidYMid meet" version="1.0"><defs><g/><clipPath id="edcf2a5a93"><path d="M 37.5 37.5 L 337.5 37.5 L 337.5 337.5 L 37.5 337.5 Z M 37.5 37.5 " clip-rule="nonzero"/></clipPath></defs><g clip-path="url(#edcf2a5a93)"><path fill="#122620" d="M 187.5 337.5 C 104.628906 337.5 37.5 269.90625 37.5 187.5 C 37.5 105.09375 104.628906 37.5 187.5 37.5 C 270.371094 37.5 337.5 104.628906 337.5 187.5 C 337.5 270.371094 269.90625 337.5 187.5 337.5 Z M 187.5 46.757812 C 109.722656 46.757812 46.757812 109.722656 46.757812 187.5 C 46.757812 265.277344 109.722656 328.242188 187.5 328.242188 C 265.277344 328.242188 328.242188 265.277344 328.242188 187.5 C 328.242188 109.722656 264.816406 46.757812 187.5 46.757812 Z M 187.5 46.757812 " fill-opacity="1" fill-rule="nonzero"/></g><path stroke-linecap="butt" transform="matrix(0.62481, 0, 0, 0.62481, 37.500002, 140.951621)" fill="none" stroke-linejoin="miter" d="M 130.683423 107.1912 C 129.401784 107.485039 127.90758 107.94768 126.207064 108.572869 C 124.506548 109.216815 122.962329 109.979546 121.568155 110.861064 C 120.180234 111.767589 119.236197 112.680366 118.729794 113.599395 C 117.879536 115.16237 117.948306 116.450261 118.942358 117.475572 C 119.948914 118.519639 121.368095 119.301127 123.212405 119.820034 C 125.069218 120.357697 126.744727 120.626529 128.238931 120.626529 L 130.683423 120.626529 Z M 135.266064 120.001339 C 136.691497 120.001339 138.573318 119.644981 140.91778 118.938516 C 143.262242 118.2258 145.806764 117.294267 148.551348 116.15017 C 151.289679 115.018576 153.940484 113.830716 156.491258 112.580336 C 159.060788 111.329956 161.230197 110.135844 162.999484 108.985495 C 164.787527 107.860153 165.925372 106.984887 166.413021 106.359697 C 165.425221 106.359697 164.299879 106.209652 163.055751 105.915813 C 161.817875 105.640729 160.698786 105.428165 159.69223 105.290623 C 157.922943 104.996784 156.272442 104.796723 154.746979 104.690441 C 153.215264 104.59041 151.739816 104.534143 150.320635 104.534143 C 148.39505 104.534143 146.431954 104.640426 144.431347 104.846738 C 142.455747 105.059303 140.261331 105.340638 137.848098 105.7095 C 136.697749 105.847042 135.997536 106.053354 135.734957 106.33469 C 135.491133 106.628529 135.441117 107.053658 135.578659 107.610077 C 135.734957 108.179 135.74746 109.073021 135.603667 110.292141 Z M 170.789349 103.571351 C 170.789349 103.571351 171.08944 103.340031 171.695874 102.871138 C 172.30856 102.41475 172.946254 101.939606 173.627711 101.439454 C 174.302916 100.93305 174.709289 100.645463 174.846831 100.576692 L 180.185952 95.99405 C 180.604829 95.650196 180.917424 95.375113 181.123737 95.187556 C 181.348805 95.012502 181.673904 94.787434 182.086529 94.512351 C 182.661704 94.074718 183.461947 93.318238 184.481006 92.242912 C 185.525073 91.186341 186.625407 89.99848 187.78826 88.67933 C 188.969869 87.372683 190.076455 86.141059 191.095514 84.978206 C 192.139581 83.796597 192.871053 82.921331 193.283679 82.352409 C 193.577518 81.983547 193.833846 81.683456 194.040158 81.439632 C 194.246471 81.195808 194.502799 80.889465 194.796638 80.526855 C 196.222071 78.688796 197.616244 76.681937 198.98541 74.512529 C 200.379583 72.34312 201.642466 70.254986 202.792816 68.26063 C 204.7184 64.928369 206.425168 61.089703 207.919372 56.750886 C 209.413576 52.412069 210.438887 47.948213 210.995306 43.365572 C 211.564229 38.782931 211.514213 34.337831 210.839008 30.036525 C 210.157552 25.728968 208.632088 21.877798 206.250115 18.470514 C 203.874394 15.050726 200.448354 12.412425 195.965743 10.555611 C 193.765075 9.567811 191.489384 8.898858 189.144922 8.548752 C 186.80046 8.186142 184.449747 8.004836 182.086529 8.004836 C 178.823038 8.004836 175.603311 8.292424 172.427347 8.861347 C 169.270138 9.436521 166.231715 10.149238 163.312079 10.999496 L 152.665097 14.725627 C 150.458177 15.713427 148.832683 16.444899 147.794868 16.913791 C 146.769557 17.376432 146.094352 17.882835 145.763001 18.420499 C 145.450406 18.939406 145.156567 19.877191 144.875232 21.233853 C 144.093744 25.503899 143.349768 29.436343 142.637052 33.031185 C 141.924336 36.60727 141.211619 40.595981 140.498903 45.009821 C 139.861209 48.929761 139.373561 52.587122 139.042211 55.969399 C 138.729616 59.339172 138.329494 62.802723 137.848098 66.360053 L 136.335139 88.64807 C 136.40391 92.486736 136.316383 95.393868 136.072559 97.37572 C 135.834987 99.370075 135.666186 100.707982 135.578659 101.383187 C 135.509888 102.064643 135.728705 102.402246 136.228856 102.402246 C 136.510192 102.402246 136.86655 102.345979 137.297931 102.245949 C 137.735564 102.139666 138.304487 102.05214 139.017203 101.983369 C 140.855261 101.68953 142.6308 101.489469 144.331316 101.383187 C 146.050588 101.283156 147.688586 101.226889 149.25156 101.226889 C 152.096174 101.226889 154.88452 101.364431 157.610348 101.645766 C 160.354931 101.939606 163.287071 102.364735 166.413021 102.921154 C 167.194508 103.077451 167.888468 103.227497 168.494903 103.365038 C 169.101337 103.50258 169.864068 103.571351 170.789349 103.571351 Z M 147.013381 12.587478 C 147.794868 12.587478 148.507584 12.412425 149.145278 12.06857 C 149.789223 11.699708 150.464428 11.380861 151.177145 11.105778 L 163.312079 6.523137 C 166.231715 5.672878 169.270138 4.972666 172.427347 4.435003 C 175.603311 3.897339 178.791779 3.628508 181.986499 3.628508 C 186.619155 3.628508 191.133026 4.322468 195.521858 5.71039 C 199.935698 7.104563 203.780616 9.461529 207.062862 12.79379 C 210.257582 16.007266 212.564532 19.664626 213.989965 23.75962 C 215.409146 27.835857 216.140618 32.099652 216.171878 36.544751 C 216.209389 40.989851 215.734245 45.303661 214.740193 49.48618 C 212.95215 57.038473 210.401376 63.815531 207.08787 69.823605 C 203.786867 75.831679 199.723134 81.670952 194.896668 87.347675 L 191.695696 90.892502 C 191.195545 91.517691 190.370294 92.417965 189.219945 93.599573 C 188.094603 94.781182 186.956758 95.919028 185.81266 97.006858 C 184.681067 98.119696 183.830809 98.882427 183.261886 99.301305 C 182.636696 99.807708 182.017758 100.301608 181.411324 100.783004 C 180.80489 101.289408 180.1797 101.827071 179.535755 102.402246 C 178.616726 103.03994 177.866498 103.571351 177.297575 103.990228 C 176.722401 104.421609 176.334783 104.996784 176.122218 105.7095 C 177.272568 105.915813 178.33539 106.409713 179.329442 107.1912 C 180.317242 107.972687 180.93618 108.822945 181.173752 109.741974 C 181.436332 110.679759 180.992447 111.542521 179.84835 112.324008 C 179.135633 111.817605 178.691748 111.329956 178.522947 110.861064 C 178.347894 110.410927 177.766468 109.935783 176.778668 109.429379 C 174.915602 108.51035 173.596451 108.04771 172.814964 108.04771 C 172.1085 108.04771 171.445799 108.27903 170.839364 108.729167 C 170.23293 109.198059 169.326405 109.823249 168.132293 110.604736 C 166.131685 111.886375 163.830987 113.243037 161.230197 114.662218 C 158.641911 116.087651 155.997358 117.40055 153.290286 118.594662 C 150.595718 119.813782 148.113715 120.776575 145.838024 121.489291 C 145.125307 121.78313 144.093744 122.120733 142.743334 122.502098 C 141.386672 122.90222 140.017507 123.239822 138.629585 123.521158 C 137.235412 123.796241 136.085063 123.971294 135.166034 124.040065 L 135.603667 132.580158 C 135.678689 132.942768 135.528644 133.286623 135.166034 133.599218 C 134.815928 133.905561 134.390798 134.061858 133.890647 134.061858 C 133.453014 134.061858 133.021633 133.893057 132.584 133.54295 C 132.171375 133.199096 131.790009 132.555151 131.439903 131.617366 C 131.214834 130.835879 131.083544 130.160674 131.052285 129.585499 C 131.014773 129.02908 130.964758 128.328867 130.895987 127.478609 C 130.752194 126.121947 130.595896 125.246682 130.427095 124.84656 C 130.252042 124.465194 129.945699 124.271386 129.514318 124.271386 C 129.232982 124.271386 128.932891 124.290141 128.601541 124.327653 C 128.288946 124.358912 127.882573 124.377668 127.376169 124.377668 C 125.813194 124.377668 124.037655 124.058821 122.037048 123.414876 C 120.061448 122.77093 118.342176 121.826893 116.885484 120.576514 C 115.42254 119.34489 114.697319 117.800671 114.697319 115.943857 C 114.697319 113.599395 115.328761 111.711322 116.597896 110.292141 C 117.879536 108.866709 119.44251 107.747619 121.28682 106.92862 C 123.143634 106.115873 124.956684 105.421913 126.725971 104.846738 C 128.514014 104.277815 129.939447 103.746404 130.996018 103.258756 C 130.996018 101.264401 131.052285 99.407587 131.152315 97.688315 C 131.277353 95.987799 131.33362 94.212259 131.33362 92.374201 C 131.33362 90.673685 131.458658 88.860635 131.702482 86.93505 C 131.946306 85.003214 132.065092 83.190163 132.065092 81.489647 C 132.065092 79.789131 132.152619 77.550951 132.327672 74.768856 C 132.515229 71.993014 132.765305 68.954591 133.0779 65.659841 C 133.40925 62.340083 133.746853 59.032829 134.096959 55.738079 C 134.459569 52.418321 134.815928 49.398654 135.166034 46.672826 C 135.528644 43.934495 135.847491 41.77759 136.128826 40.214616 L 139.954988 21.440166 C 138.754623 22.084111 137.210404 23.046903 135.322331 24.334794 C 133.446762 25.597678 131.477414 27.023111 129.408036 28.604841 C 127.344909 30.167815 125.400569 31.712034 123.575015 33.237497 C 121.768216 34.76296 120.336531 36.057103 119.279961 37.119926 L 112.246575 44.590944 C 110.045907 47.072948 107.638926 50.092615 105.038137 53.656196 C 102.449851 57.213526 99.974099 60.989673 97.610882 64.978384 C 95.272672 68.954591 93.334584 72.880783 91.80912 76.750708 C 90.277405 80.620633 89.514674 84.152955 89.514674 87.347675 C 89.514674 89.066947 89.720986 90.279816 90.139864 90.992532 C 90.577497 91.705248 91.077648 92.149133 91.652823 92.324186 C 92.221746 92.499239 92.734401 92.636781 93.184538 92.736812 C 93.65343 92.843094 93.959773 93.218208 94.097315 93.855901 C 94.30988 94.868709 93.740957 95.368861 92.403051 95.368861 C 91.258953 95.368861 89.939803 94.743671 88.445599 93.493291 C 86.957648 92.242912 86.20742 90.198541 86.20742 87.347675 C 86.20742 84.934443 86.613793 82.333653 87.432792 79.539055 C 88.245539 76.7257 89.283354 73.912346 90.533733 71.098992 C 91.784113 68.285638 93.109515 65.622329 94.516192 63.102814 C 95.941625 60.570796 97.260776 58.420143 98.473644 56.650856 C 100.818106 53.087274 103.075041 49.98008 105.244449 47.323024 C 107.413858 44.653463 109.670793 42.071429 112.015255 39.589426 C 114.359717 37.088666 116.985514 34.381595 119.905151 31.46821 C 122.612222 29.123748 125.356806 26.848057 128.132648 24.647389 C 130.908491 22.440469 133.828128 20.414854 136.885306 18.576796 C 137.941877 18.001622 138.929676 17.451455 139.848705 16.913791 C 140.78649 16.369876 141.392924 15.744686 141.67426 15.038222 C 142.174412 14.04417 142.587037 13.093882 142.899632 12.168601 C 143.22473 11.249572 144.024973 10.643137 145.294109 10.349298 C 146.006825 10.711908 146.463214 10.94948 146.675778 11.049511 C 146.900847 11.155793 147.013381 11.668449 147.013381 12.587478 Z M 221.667296 88.41675 C 220.241863 88.41675 218.972728 87.954109 217.866142 87.03508 C 216.77206 86.116051 215.934305 85.159511 215.365383 84.171711 C 214.096247 81.739723 213.364775 78.876353 213.177218 75.581603 C 213.002165 72.261845 213.202226 69.260934 213.777401 66.566366 C 213.914942 65.784879 214.102499 64.853346 214.346323 63.759264 C 214.608903 62.646426 214.984017 61.664878 215.465413 60.81462 C 215.971817 59.945606 216.578251 59.514225 217.290967 59.514225 C 218.922713 59.514225 219.722956 60.070644 219.685444 61.17723 C 219.654185 62.271312 219.347842 63.984332 218.772667 66.310038 C 218.216248 68.616989 217.941165 71.580388 217.941165 75.187734 C 217.941165 76.26306 218.078706 77.550951 218.360042 79.045155 C 218.635125 80.533106 219.07901 81.852257 219.685444 83.002606 C 220.291878 84.127948 221.05461 84.690619 221.979891 84.690619 C 223.123988 84.690619 224.424383 84.196719 225.881075 83.208919 C 227.344019 82.202363 228.688178 81.083273 229.919802 79.85165 C 231.170181 78.60127 232.045447 77.650981 232.551851 77.013288 C 232.689392 76.869494 233.07701 76.39435 233.720956 75.581603 C 234.364901 74.762604 235.127633 73.843575 236.015402 72.818264 C 236.89692 71.774197 237.765934 70.867672 238.616192 70.086185 C 239.46645 69.304697 240.147907 68.910828 240.648059 68.910828 C 241.154462 68.910828 241.404538 69.335957 241.404538 70.186215 C 241.404538 70.692619 241.066936 71.45535 240.385479 72.480662 C 239.710274 73.505973 238.903779 74.587551 237.965994 75.737901 C 237.046965 76.863242 236.14044 77.932317 235.258922 78.938872 C 234.371153 79.926672 233.714704 80.639389 233.277071 81.07077 C 232.426813 81.921028 231.414005 82.940087 230.232396 84.121696 C 229.069543 85.284549 227.7754 86.291105 226.349968 87.141363 C 224.930787 87.991621 223.367812 88.41675 221.667296 88.41675 Z M 218.25376 46.072644 C 218.25376 44.878532 218.572606 43.834465 219.216552 42.952947 C 219.860497 42.046422 220.573214 41.596285 221.354701 41.596285 C 222.204959 41.596285 222.917676 42.133948 223.486598 43.209275 C 224.48065 45.191126 224.599436 46.735345 223.85546 47.848183 C 223.105233 48.942265 222.192455 49.48618 221.117129 49.48618 C 220.423168 49.48618 219.772971 49.211097 219.166537 48.654678 C 218.560103 48.079503 218.25376 47.222993 218.25376 46.072644 Z M 242.023476 101.126859 C 244.161625 101.126859 246.093462 100.357875 247.83149 98.832412 C 249.582021 97.306949 251.09498 95.506402 252.364116 93.443276 C 253.645755 91.373898 254.721081 89.560847 255.590095 87.997873 C 255.158714 88.141666 254.295952 88.529284 253.014313 89.17323 C 251.745178 89.817175 250.469791 90.49238 249.188151 91.205096 C 247.90026 91.917813 247.006239 92.442972 246.506087 92.793079 C 245.580806 93.362001 244.586754 94.112229 243.511428 95.031258 C 242.448605 95.969043 241.548332 96.894324 240.798104 97.819605 C 240.054128 98.738634 239.735282 99.520121 239.835312 100.157815 C 239.96035 100.80176 240.68557 101.126859 242.023476 101.126859 Z M 238.616192 81.283334 C 238.616192 78.576262 238.716222 75.250253 238.928787 71.305305 C 239.153855 67.366609 239.472702 63.209097 239.891579 58.832768 C 240.32296 54.462691 240.898135 50.317683 241.610851 46.416498 C 242.317315 42.490306 243.167574 39.289335 244.161625 36.807331 C 244.730548 35.381898 245.261959 34.406602 245.749608 33.887695 C 246.249759 33.350031 246.718652 33.0812 247.156285 33.0812 C 247.656436 33.0812 248.050306 33.331276 248.32539 33.837679 C 248.606725 34.325328 248.706755 34.737953 248.637984 35.088059 C 248.637984 35.244357 248.550458 35.625722 248.381657 36.232156 C 248.206603 36.819835 248.081566 37.370002 248.012795 37.870154 C 247.443872 40.077074 246.831186 42.977954 246.193492 46.572796 C 245.549547 50.161385 244.955616 53.981295 244.417953 58.026273 C 243.899046 62.071251 243.473917 65.909917 243.142566 69.536018 C 242.829971 73.16837 242.673674 76.050495 242.673674 78.182393 L 245.018135 74.356231 C 245.386997 73.643515 245.755859 72.980813 246.137225 72.374379 C 246.537347 71.767945 246.981231 71.211526 247.468879 70.711374 C 248.612977 69.1484 249.894616 67.923028 251.320049 67.035258 C 252.745481 66.153741 254.133403 65.709856 255.490065 65.709856 C 257.759504 65.709856 259.566302 66.916472 260.904209 69.329705 C 262.117077 71.674167 262.610977 73.774805 262.385908 75.631618 C 262.179596 77.469676 262.073313 79.213956 262.073313 80.864457 C 263.429975 80.151741 264.517806 79.582818 265.330552 79.145185 C 266.149551 78.713804 266.943542 78.251164 267.725029 77.763516 C 268.525272 77.263364 269.556836 76.550647 270.825971 75.631618 C 271.469916 75.125215 272.332678 74.41875 273.42676 73.493469 C 274.539598 72.57444 275.589917 71.705426 276.577717 70.89268 C 277.584273 70.061177 278.196959 69.6423 278.403271 69.6423 C 279.478598 69.6423 280.066276 69.87362 280.172558 70.342512 C 280.278841 70.811405 280.097536 71.349068 279.628643 71.961754 C 279.172255 72.549433 278.697111 73.080844 278.196959 73.549736 C 277.690555 74.018629 277.371708 74.28746 277.227914 74.356231 C 276.452679 75.206489 275.63368 75.950465 274.783422 76.594411 C 273.933164 77.238356 273.082906 77.951072 272.232648 78.73256 C 271.088551 79.514047 269.63811 80.41432 267.881327 81.439632 C 266.149551 82.464943 264.586577 83.390224 263.192403 84.221726 C 261.823238 85.040725 261.022995 85.58464 260.797926 85.865975 C 260.591614 86.228586 260.254011 87.028829 259.785119 88.260452 C 259.334982 89.510832 258.672281 90.967524 257.803267 92.636781 C 256.953009 94.299786 255.852675 95.969043 254.496013 97.632048 C 253.164359 99.32006 251.495102 100.770501 249.500746 101.983369 C 247.018743 103.546343 244.492976 104.327831 241.923446 104.327831 C 240.429242 104.327831 239.141351 103.952717 238.066025 103.208741 C 237.009454 102.458513 236.478043 101.264401 236.478043 99.613899 C 236.478043 98.050925 237.190759 96.506706 238.616192 94.981243 C 240.035373 93.449528 241.779652 91.992836 243.84903 90.604914 C 245.912157 89.216993 247.969031 87.991621 250.019654 86.93505 C 252.08278 85.872227 253.758289 85.021969 255.04618 84.378024 C 256.03398 83.877872 256.652918 83.552773 256.896742 83.415231 C 257.15307 83.27769 257.434405 82.602485 257.728244 81.383365 C 258.215892 79.320238 258.422205 77.369646 258.353434 75.525336 C 258.284663 73.668522 257.97832 72.161815 257.440657 70.998962 C 256.921749 69.817353 256.121506 69.223423 255.04618 69.223423 C 253.689518 69.223423 251.989002 70.39878 249.938379 72.743241 C 248.150336 74.875139 246.718652 77.194593 245.643325 79.695352 C 244.586754 82.177356 243.717741 84.309253 243.042536 86.097296 C 242.361079 87.872835 241.667118 88.754352 240.954402 88.754352 C 240.035373 88.754352 239.410183 88.347979 239.085084 87.52898 C 238.772489 86.697478 238.616192 85.697174 238.616192 84.534321 C 238.616192 83.358964 238.616192 82.271134 238.616192 81.283334 Z M 279.884971 101.126859 C 282.02312 101.126859 283.961209 100.357875 285.692985 98.832412 C 287.449768 97.306949 288.956475 95.506402 290.225611 93.443276 C 291.513502 91.373898 292.588828 89.560847 293.45159 87.997873 C 293.020209 88.141666 292.163699 88.529284 290.875808 89.17323 C 289.606673 89.817175 288.331286 90.49238 287.049646 91.205096 C 285.761755 91.917813 284.867734 92.442972 284.367582 92.793079 C 283.448553 93.362001 282.448249 94.112229 281.372923 95.031258 C 280.3101 95.969043 279.409827 96.894324 278.665851 97.819605 C 277.915623 98.738634 277.596776 99.520121 277.703059 100.157815 C 277.821845 100.80176 278.553317 101.126859 279.884971 101.126859 Z M 276.477687 81.283334 C 276.477687 78.576262 276.577717 75.250253 276.790282 71.305305 C 277.01535 67.366609 277.334197 63.209097 277.753074 58.832768 C 278.184455 54.462691 278.75963 50.317683 279.472346 46.416498 C 280.185062 42.490306 281.03532 39.289335 282.02312 36.807331 C 282.598295 35.381898 283.123454 34.406602 283.611102 33.887695 C 284.117506 33.350031 284.586399 33.0812 285.01778 33.0812 C 285.524183 33.0812 285.911801 33.331276 286.186884 33.837679 C 286.46822 34.325328 286.574502 34.737953 286.499479 35.088059 C 286.499479 35.244357 286.418205 35.625722 286.243152 36.232156 C 286.068098 36.819835 285.949312 37.370002 285.87429 37.870154 C 285.305367 40.077074 284.698933 42.977954 284.054987 46.572796 C 283.411042 50.161385 282.823363 53.981295 282.2857 58.026273 C 281.760541 62.071251 281.335412 65.909917 281.010313 69.536018 C 280.697718 73.16837 280.54142 76.050495 280.54142 78.182393 L 282.87963 74.356231 C 283.248492 73.643515 283.617354 72.980813 284.004972 72.374379 C 284.398842 71.767945 284.842726 71.211526 285.330374 70.711374 C 286.474472 69.1484 287.762363 67.923028 289.181544 67.035258 C 290.606976 66.153741 291.994898 65.709856 293.35156 65.709856 C 295.627251 65.709856 297.427797 66.916472 298.765703 69.329705 C 299.984824 71.674167 300.478724 73.774805 300.253655 75.631618 C 300.041091 77.469676 299.94106 79.213956 299.94106 80.864457 C 301.29147 80.151741 302.379301 79.582818 303.192047 79.145185 C 304.011046 78.713804 304.805037 78.251164 305.586524 77.763516 C 306.386767 77.263364 307.41833 76.550647 308.687466 75.631618 C 309.331411 75.125215 310.200425 74.41875 311.294507 73.493469 C 312.401093 72.57444 313.451412 71.705426 314.445464 70.89268 C 315.45202 70.061177 316.058454 69.6423 316.264766 69.6423 C 317.340093 69.6423 317.934023 69.87362 318.034053 70.342512 C 318.140336 70.811405 317.959031 71.349068 317.490138 71.961754 C 317.040002 72.549433 316.558605 73.080844 316.058454 73.549736 C 315.55205 74.018629 315.233203 74.28746 315.095661 74.356231 C 314.314174 75.206489 313.495175 75.950465 312.644917 76.594411 C 311.794659 77.238356 310.944401 77.951072 310.094143 78.73256 C 308.950045 79.514047 307.499605 80.41432 305.742822 81.439632 C 304.011046 82.464943 302.448071 83.390224 301.06015 84.221726 C 299.684732 85.040725 298.890741 85.58464 298.665673 85.865975 C 298.453109 86.228586 298.115506 87.028829 297.646614 88.260452 C 297.196477 89.510832 296.533776 90.967524 295.671014 92.636781 C 294.814504 94.299786 293.71417 95.969043 292.36376 97.632048 C 291.025854 99.32006 289.356597 100.770501 287.362241 101.983369 C 284.880238 103.546343 282.354471 104.327831 279.784941 104.327831 C 278.290737 104.327831 277.009098 103.952717 275.92752 103.208741 C 274.870949 102.458513 274.339538 101.264401 274.339538 99.613899 C 274.339538 98.050925 275.052254 96.506706 276.477687 94.981243 C 277.903119 93.449528 279.647399 91.992836 281.710525 90.604914 C 283.773652 89.216993 285.830526 87.991621 287.881149 86.93505 C 289.950527 85.872227 291.626036 85.021969 292.907675 84.378024 C 293.895475 83.877872 294.514413 83.552773 294.758237 83.415231 C 295.014565 83.27769 295.2959 82.602485 295.589739 81.383365 C 296.077387 79.320238 296.2837 77.369646 296.214929 75.525336 C 296.146158 73.668522 295.839815 72.161815 295.302152 70.998962 C 294.783244 69.817353 293.983001 69.223423 292.907675 69.223423 C 291.551013 69.223423 289.850497 70.39878 287.806126 72.743241 C 286.018083 74.875139 284.586399 77.194593 283.50482 79.695352 C 282.448249 82.177356 281.579236 84.309253 280.904031 86.097296 C 280.228826 87.872835 279.534865 88.754352 278.822148 88.754352 C 277.903119 88.754352 277.27793 88.347979 276.946579 87.52898 C 276.633984 86.697478 276.477687 85.697174 276.477687 84.534321 C 276.477687 83.358964 276.477687 82.271134 276.477687 81.283334 Z M 315.952171 130.760856 C 318.02155 130.760856 319.86586 130.14817 321.497605 128.935302 C 323.12935 127.734937 324.567287 126.284497 325.798911 124.58398 C 327.04929 122.883464 328.099609 121.28923 328.949868 119.795027 C 329.743859 118.300823 330.625376 116.168926 331.575665 113.386831 C 332.532205 110.610988 333.43873 107.597573 334.288988 104.352838 C 335.139247 101.126859 335.864467 98.069681 336.470901 95.187556 C 337.083587 92.324186 337.452449 90.067251 337.596243 88.41675 C 336.739733 88.923154 335.964497 89.460817 335.251781 90.02974 L 324.804859 99.301305 C 324.51102 99.595144 324.223433 99.932746 323.948349 100.314112 C 323.673266 100.714233 323.316907 101.089347 322.879274 101.439454 C 321.178758 103.13997 319.653295 104.840486 318.296633 106.541003 C 316.946223 108.260275 315.589561 110.148348 314.232899 112.217726 C 313.595206 113.136755 312.913749 114.312112 312.207284 115.731293 C 311.494568 117.156726 310.913141 118.663433 310.456753 120.263919 C 309.987861 121.858153 309.819059 123.439883 309.937845 125.002858 C 310.044128 126.565832 310.625554 127.922494 311.682125 129.066591 C 312.601154 130.191933 314.026587 130.760856 315.952171 130.760856 Z M 318.402915 78.626277 C 319.459486 78.051103 320.703614 76.932013 322.122795 75.269008 C 323.548228 73.580996 325.042431 71.58664 326.605406 69.27969 C 328.16838 66.966488 329.693843 64.590766 331.188047 62.140022 C 332.694754 59.676774 334.070172 57.401083 335.301796 55.319201 C 336.552176 53.218564 337.533724 51.524299 338.24644 50.24266 C 339.096698 48.817227 339.678125 47.879443 339.99072 47.429306 C 340.315818 46.960414 341.04729 46.729093 342.178884 46.729093 C 342.747807 46.729093 343.172936 47.135467 343.454271 47.948213 C 343.74811 48.767212 343.966927 49.767516 344.104469 50.942873 C 344.24201 52.105726 344.310781 53.224815 344.310781 54.306394 C 344.310781 55.362965 344.310781 56.181963 344.310781 56.750886 L 344.310781 64.953376 C 344.310781 66.741419 344.223255 68.635744 344.048201 70.6301 C 343.8794 72.611952 343.710599 74.456261 343.554301 76.175533 C 343.41676 77.87605 343.347989 79.22646 343.347989 80.21426 L 358.608872 71.361572 C 358.971482 71.149007 359.72171 70.655107 360.847052 69.87362 C 361.991149 69.092133 362.953941 68.704515 363.735429 68.704515 C 364.379374 68.704515 364.698221 69.092133 364.698221 69.87362 C 364.698221 70.361268 364.110542 71.036473 362.928934 71.905487 C 361.747325 72.755745 360.496945 73.537232 359.177795 74.249949 C 357.8774 74.962665 357.008386 75.456565 356.577005 75.737901 C 354.370085 76.950769 352.181921 78.251164 350.012512 79.639085 C 347.861859 81.014503 345.75497 82.408676 343.685591 83.834109 C 343.18544 84.196719 342.916608 84.503062 342.879096 84.746886 C 342.847837 84.99071 342.76031 85.497114 342.616517 86.278601 C 342.116365 89.773412 341.403649 93.71836 340.48462 98.1322 C 339.56559 102.539788 338.427745 106.834842 337.071083 111.017362 C 335.720673 115.218637 334.157699 118.744708 332.388411 121.589321 C 331.375604 123.521158 330.04395 125.421735 328.374693 127.297304 C 326.711688 129.185377 324.84237 130.748352 322.779244 131.979976 C 320.709866 133.230356 318.502946 133.855545 316.164736 133.855545 C 313.526435 133.855545 311.319515 132.961524 309.550228 131.173481 C 307.774689 129.404194 306.893171 126.92219 306.893171 123.72747 C 306.893171 121.383009 307.499605 118.857242 308.712473 116.15017 C 309.912838 113.455602 311.519576 110.704767 313.532687 107.897664 C 315.564554 105.08431 317.752718 102.389742 320.09718 99.820212 C 322.454145 97.269438 324.804859 94.943732 327.149321 92.843094 C 329.493783 90.761212 331.59442 89.04194 333.451234 87.685278 C 333.80134 87.322668 334.113935 87.053836 334.389019 86.878783 C 334.682858 86.70373 335.039216 86.47241 335.458093 86.17857 C 336.464649 85.328312 337.196121 84.746886 337.646258 84.434291 C 338.11515 84.10294 338.383982 83.47775 338.452753 82.558721 C 338.884134 78.926369 339.278003 75.587855 339.621858 72.530677 C 339.99072 69.479751 340.259551 66.335046 340.434604 63.102814 C 340.603406 59.858079 340.690932 56.213223 340.690932 52.168245 C 340.48462 52.305786 339.890689 53.143541 338.921645 54.669004 C 337.965105 56.194467 336.883526 57.976258 335.664406 60.008125 C 334.470294 62.039992 333.332448 63.921813 332.257122 65.659841 C 331.194299 67.391617 330.450323 68.585729 330.01269 69.223423 C 328.956119 70.923939 327.661977 72.943302 326.136513 75.269008 C 324.61105 77.575959 323.12935 79.395261 321.71017 80.733167 C 320.353508 81.952287 319.115632 82.558721 317.984038 82.558721 C 316.839941 82.558721 315.877149 82.008554 315.095661 80.914472 C 314.314174 79.807886 313.920304 78.332438 313.920304 76.488128 C 313.920304 75.344031 314.064098 73.918598 314.339182 72.218082 C 314.633021 70.49881 315.05815 68.810797 315.614569 67.141541 C 316.189743 65.472284 316.846193 64.078111 317.596421 62.946517 C 318.340396 61.80242 319.140639 61.233497 319.990898 61.233497 C 321.203766 61.233497 321.8102 61.658626 321.8102 62.508884 C 321.8102 63.359142 321.528864 64.547003 320.95369 66.072466 C 320.397271 67.604181 319.8346 69.435987 319.259425 71.567885 C 318.690503 73.706034 318.402915 76.056747 318.402915 78.626277 Z M 360.853304 77.2196 C 360.853304 75.725397 361.20341 73.874835 361.916126 71.674167 C 362.628843 69.467247 363.616643 67.279082 364.885778 65.109674 C 366.173669 62.940265 367.649117 61.152222 369.312122 59.745545 C 371.000134 58.320112 372.756918 57.613648 374.601227 57.613648 C 376.320499 57.613648 377.708421 58.107548 378.764992 59.095348 C 379.840318 60.083148 380.484264 61.102207 380.690576 62.140022 C 380.903141 63.165333 380.546783 63.677989 379.627754 63.677989 C 378.915037 63.677989 378.183565 63.271616 377.439589 62.452617 C 376.689361 61.63987 375.8266 61.233497 374.832548 61.233497 C 374.05106 61.233497 373.107024 61.689886 371.994186 62.608915 C 370.900104 63.527944 369.56845 65.347246 367.986719 68.054318 C 367.274003 69.198415 366.611302 70.673863 366.004868 72.480662 C 365.417189 74.28746 365.12335 76.081755 365.12335 77.869798 C 365.260892 77.732256 365.310907 77.682241 365.279647 77.7135 C 365.242136 77.751012 365.367174 77.619722 365.642258 77.325883 L 366.498768 76.050495 C 367.073942 75.193985 367.736643 74.093651 368.480619 72.743241 C 369.224595 71.386579 369.993579 70.023666 370.768814 68.6545 C 371.550301 67.260327 372.263018 66.091222 372.906963 65.134681 C 373.550909 64.165637 374.044809 63.677989 374.388663 63.677989 C 375.676554 63.677989 376.42053 64.146881 376.633094 65.084666 C 376.839407 66.003695 376.926934 67.141541 376.889422 68.498203 C 376.858163 69.829857 376.989453 71.180267 377.283292 72.530677 C 377.695917 74.456261 378.352366 75.862939 379.233884 76.750708 C 380.140409 77.638478 381.153217 78.07611 382.278558 78.07611 C 384.279166 78.07611 386.479834 76.869494 388.893067 74.456261 C 389.899622 73.537232 390.612339 72.774501 391.031216 72.168067 C 391.462597 71.561633 392.037771 70.867672 392.750488 70.086185 C 393.238136 69.373468 393.869577 69.01711 394.651065 69.01711 C 395.432552 69.01711 395.770154 69.673559 395.663872 70.998962 C 395.563842 72.299357 394.163417 74.268705 391.4751 76.907006 L 388.267877 79.45778 C 386.20475 80.883213 384.210395 81.595929 382.278558 81.595929 C 380.509271 81.595929 378.965052 81.064518 377.645902 80.007947 C 376.326751 78.926369 375.313944 77.607218 374.601227 76.050495 C 373.888511 74.487521 373.532153 72.955806 373.532153 71.461602 C 373.044505 71.830464 372.481834 72.618203 371.837889 73.837324 C 371.200195 75.031436 370.499982 76.325579 369.756006 77.7135 C 369.012031 79.101422 368.243047 80.308038 367.467812 81.333349 C 366.686324 82.358661 365.904837 82.871316 365.12335 82.871316 C 363.122743 82.871316 361.909874 82.408676 361.478493 81.489647 C 361.059616 80.570618 360.853304 79.145185 360.853304 77.2196 Z M 360.853304 77.2196 " stroke="#fffef9" stroke-width="8.000025" stroke-opacity="1" stroke-miterlimit="4"/><g fill="#122620" fill-opacity="1"><g transform="translate(92.698082, 195.934923)"><g><path d="M 26.453125 12 C 25.648438 12.175781 24.71875 12.460938 23.65625 12.859375 C 22.59375 13.265625 21.625 13.742188 20.75 14.296875 C 19.882812 14.847656 19.300781 15.414062 19 16 C 18.457031 16.96875 18.5 17.773438 19.125 18.421875 C 19.75 19.066406 20.640625 19.554688 21.796875 19.890625 C 22.953125 20.222656 23.992188 20.390625 24.921875 20.390625 L 26.453125 20.390625 Z M 29.328125 19.984375 C 30.210938 19.984375 31.382812 19.757812 32.84375 19.3125 C 34.3125 18.875 35.898438 18.300781 37.609375 17.59375 C 39.328125 16.882812 40.984375 16.140625 42.578125 15.359375 C 44.179688 14.578125 45.535156 13.832031 46.640625 13.125 C 47.753906 12.414062 48.46875 11.863281 48.78125 11.46875 C 48.15625 11.46875 47.453125 11.375 46.671875 11.1875 C 45.898438 11.007812 45.203125 10.878906 44.578125 10.796875 C 43.472656 10.617188 42.441406 10.492188 41.484375 10.421875 C 40.523438 10.359375 39.601562 10.328125 38.71875 10.328125 C 37.519531 10.328125 36.296875 10.394531 35.046875 10.53125 C 33.804688 10.664062 32.429688 10.84375 30.921875 11.0625 C 30.210938 11.15625 29.78125 11.289062 29.625 11.46875 C 29.46875 11.644531 29.429688 11.910156 29.515625 12.265625 C 29.609375 12.617188 29.609375 13.171875 29.515625 13.921875 Z M 51.515625 9.734375 C 51.515625 9.734375 51.703125 9.585938 52.078125 9.296875 C 52.453125 9.003906 52.847656 8.703125 53.265625 8.390625 C 53.691406 8.085938 53.953125 7.910156 54.046875 7.859375 L 57.375 5 C 57.644531 4.78125 57.84375 4.613281 57.96875 4.5 C 58.101562 4.382812 58.304688 4.238281 58.578125 4.0625 C 58.929688 3.800781 59.429688 3.335938 60.078125 2.671875 C 60.722656 2.003906 61.410156 1.257812 62.140625 0.4375 C 62.867188 -0.382812 63.554688 -1.160156 64.203125 -1.890625 C 64.847656 -2.628906 65.304688 -3.175781 65.578125 -3.53125 C 65.753906 -3.75 65.90625 -3.9375 66.03125 -4.09375 C 66.164062 -4.25 66.320312 -4.441406 66.5 -4.671875 C 67.394531 -5.816406 68.273438 -7.066406 69.140625 -8.421875 C 70.003906 -9.785156 70.789062 -11.085938 71.5 -12.328125 C 72.695312 -14.410156 73.765625 -16.804688 74.703125 -19.515625 C 75.640625 -22.234375 76.285156 -25.023438 76.640625 -27.890625 C 76.992188 -30.753906 76.957031 -33.53125 76.53125 -36.21875 C 76.113281 -38.90625 75.160156 -41.3125 73.671875 -43.4375 C 72.179688 -45.570312 70.035156 -47.21875 67.234375 -48.375 C 65.859375 -49 64.4375 -49.421875 62.96875 -49.640625 C 61.507812 -49.867188 60.046875 -49.984375 58.578125 -49.984375 C 56.535156 -49.984375 54.523438 -49.804688 52.546875 -49.453125 C 50.566406 -49.097656 48.664062 -48.648438 46.84375 -48.109375 L 40.1875 -45.78125 C 38.8125 -45.15625 37.800781 -44.695312 37.15625 -44.40625 C 36.507812 -44.125 36.085938 -43.816406 35.890625 -43.484375 C 35.691406 -43.148438 35.5 -42.5625 35.3125 -41.71875 C 34.832031 -39.050781 34.367188 -36.59375 33.921875 -34.34375 C 33.472656 -32.101562 33.03125 -29.609375 32.59375 -26.859375 C 32.1875 -24.410156 31.882812 -22.128906 31.6875 -20.015625 C 31.488281 -17.910156 31.234375 -15.75 30.921875 -13.53125 L 29.984375 0.40625 C 30.035156 2.800781 29.984375 4.617188 29.828125 5.859375 C 29.671875 7.109375 29.566406 7.941406 29.515625 8.359375 C 29.472656 8.785156 29.609375 9 29.921875 9 C 30.097656 9 30.316406 8.960938 30.578125 8.890625 C 30.847656 8.828125 31.207031 8.773438 31.65625 8.734375 C 32.8125 8.554688 33.921875 8.429688 34.984375 8.359375 C 36.046875 8.296875 37.066406 8.265625 38.046875 8.265625 C 39.828125 8.265625 41.570312 8.351562 43.28125 8.53125 C 44.988281 8.707031 46.820312 8.972656 48.78125 9.328125 C 49.269531 9.421875 49.703125 9.507812 50.078125 9.59375 C 50.453125 9.6875 50.929688 9.734375 51.515625 9.734375 Z M 36.65625 -47.109375 C 37.144531 -47.109375 37.585938 -47.21875 37.984375 -47.4375 C 38.378906 -47.664062 38.800781 -47.867188 39.25 -48.046875 L 46.84375 -50.90625 C 48.664062 -51.445312 50.566406 -51.882812 52.546875 -52.21875 C 54.523438 -52.550781 56.515625 -52.71875 58.515625 -52.71875 C 61.398438 -52.71875 64.21875 -52.28125 66.96875 -51.40625 C 69.726562 -50.539062 72.128906 -49.066406 74.171875 -46.984375 C 76.171875 -44.984375 77.613281 -42.703125 78.5 -40.140625 C 79.382812 -37.585938 79.835938 -34.921875 79.859375 -32.140625 C 79.890625 -29.367188 79.59375 -26.675781 78.96875 -24.0625 C 77.851562 -19.351562 76.265625 -15.117188 74.203125 -11.359375 C 72.140625 -7.609375 69.597656 -3.957031 66.578125 -0.40625 L 64.578125 1.796875 C 64.265625 2.203125 63.75 2.769531 63.03125 3.5 C 62.320312 4.226562 61.613281 4.9375 60.90625 5.625 C 60.195312 6.3125 59.664062 6.789062 59.3125 7.0625 C 58.90625 7.375 58.515625 7.6875 58.140625 8 C 57.765625 8.3125 57.378906 8.644531 56.984375 9 C 56.398438 9.394531 55.929688 9.722656 55.578125 9.984375 C 55.222656 10.253906 54.976562 10.613281 54.84375 11.0625 C 55.550781 11.195312 56.21875 11.507812 56.84375 12 C 57.46875 12.488281 57.859375 13.019531 58.015625 13.59375 C 58.171875 14.175781 57.890625 14.707031 57.171875 15.1875 C 56.734375 14.882812 56.457031 14.585938 56.34375 14.296875 C 56.226562 14.003906 55.863281 13.703125 55.25 13.390625 C 54.09375 12.816406 53.269531 12.53125 52.78125 12.53125 C 52.332031 12.53125 51.921875 12.671875 51.546875 12.953125 C 51.171875 13.242188 50.601562 13.632812 49.84375 14.125 C 48.601562 14.925781 47.171875 15.769531 45.546875 16.65625 C 43.921875 17.550781 42.265625 18.375 40.578125 19.125 C 38.890625 19.882812 37.335938 20.484375 35.921875 20.921875 C 35.472656 21.097656 34.828125 21.304688 33.984375 21.546875 C 33.140625 21.796875 32.285156 22.007812 31.421875 22.1875 C 30.554688 22.363281 29.832031 22.476562 29.25 22.53125 L 29.515625 27.859375 C 29.566406 28.078125 29.476562 28.285156 29.25 28.484375 C 29.03125 28.679688 28.765625 28.78125 28.453125 28.78125 C 28.191406 28.78125 27.925781 28.671875 27.65625 28.453125 C 27.382812 28.234375 27.140625 27.832031 26.921875 27.25 C 26.785156 26.757812 26.707031 26.335938 26.6875 25.984375 C 26.664062 25.628906 26.632812 25.1875 26.59375 24.65625 C 26.5 23.8125 26.394531 23.265625 26.28125 23.015625 C 26.175781 22.773438 25.988281 22.65625 25.71875 22.65625 C 25.539062 22.65625 25.351562 22.664062 25.15625 22.6875 C 24.957031 22.707031 24.703125 22.71875 24.390625 22.71875 C 23.410156 22.71875 22.296875 22.519531 21.046875 22.125 C 19.804688 21.726562 18.726562 21.140625 17.8125 20.359375 C 16.90625 19.578125 16.453125 18.609375 16.453125 17.453125 C 16.453125 15.992188 16.851562 14.816406 17.65625 13.921875 C 18.457031 13.035156 19.4375 12.335938 20.59375 11.828125 C 21.75 11.316406 22.878906 10.882812 23.984375 10.53125 C 25.097656 10.175781 25.988281 9.84375 26.65625 9.53125 C 26.65625 8.28125 26.6875 7.125 26.75 6.0625 C 26.820312 5 26.859375 3.890625 26.859375 2.734375 C 26.859375 1.671875 26.9375 0.539062 27.09375 -0.65625 C 27.25 -1.863281 27.328125 -3 27.328125 -4.0625 C 27.328125 -5.132812 27.378906 -6.535156 27.484375 -8.265625 C 27.597656 -9.992188 27.753906 -11.890625 27.953125 -13.953125 C 28.148438 -16.023438 28.359375 -18.09375 28.578125 -20.15625 C 28.804688 -22.21875 29.03125 -24.101562 29.25 -25.8125 C 29.476562 -27.53125 29.679688 -28.878906 29.859375 -29.859375 L 32.25 -41.578125 C 31.5 -41.179688 30.535156 -40.582031 29.359375 -39.78125 C 28.179688 -38.976562 26.945312 -38.085938 25.65625 -37.109375 C 24.363281 -36.140625 23.148438 -35.175781 22.015625 -34.21875 C 20.890625 -33.257812 19.992188 -32.445312 19.328125 -31.78125 L 14.921875 -27.125 C 13.546875 -25.570312 12.046875 -23.679688 10.421875 -21.453125 C 8.804688 -19.234375 7.265625 -16.878906 5.796875 -14.390625 C 4.328125 -11.898438 3.113281 -9.445312 2.15625 -7.03125 C 1.207031 -4.613281 0.734375 -2.40625 0.734375 -0.40625 C 0.734375 0.664062 0.863281 1.421875 1.125 1.859375 C 1.394531 2.304688 1.707031 2.582031 2.0625 2.6875 C 2.414062 2.800781 2.738281 2.890625 3.03125 2.953125 C 3.320312 3.023438 3.507812 3.265625 3.59375 3.671875 C 3.726562 4.285156 3.375 4.59375 2.53125 4.59375 C 1.820312 4.59375 1 4.203125 0.0625 3.421875 C -0.863281 2.648438 -1.328125 1.375 -1.328125 -0.40625 C -1.328125 -1.914062 -1.070312 -3.546875 -0.5625 -5.296875 C -0.0507812 -7.054688 0.585938 -8.8125 1.359375 -10.5625 C 2.140625 -12.3125 2.972656 -13.972656 3.859375 -15.546875 C 4.753906 -17.128906 5.578125 -18.476562 6.328125 -19.59375 C 7.796875 -21.8125 9.207031 -23.753906 10.5625 -25.421875 C 11.914062 -27.085938 13.328125 -28.695312 14.796875 -30.25 C 16.265625 -31.8125 17.90625 -33.5 19.71875 -35.3125 C 21.414062 -36.78125 23.128906 -38.203125 24.859375 -39.578125 C 26.585938 -40.960938 28.410156 -42.234375 30.328125 -43.390625 C 30.992188 -43.742188 31.613281 -44.085938 32.1875 -44.421875 C 32.757812 -44.753906 33.132812 -45.140625 33.3125 -45.578125 C 33.625 -46.203125 33.878906 -46.800781 34.078125 -47.375 C 34.285156 -47.957031 34.789062 -48.335938 35.59375 -48.515625 C 36.03125 -48.296875 36.316406 -48.148438 36.453125 -48.078125 C 36.585938 -48.015625 36.65625 -47.691406 36.65625 -47.109375 Z M 36.65625 -47.109375 "/></g></g></g><g fill="#122620" fill-opacity="1"><g transform="translate(170.466909, 195.934923)"><g><path d="M 5.53125 0.265625 C 4.644531 0.265625 3.851562 -0.0195312 3.15625 -0.59375 C 2.46875 -1.175781 1.945312 -1.78125 1.59375 -2.40625 C 0.800781 -3.914062 0.347656 -5.703125 0.234375 -7.765625 C 0.117188 -9.828125 0.238281 -11.703125 0.59375 -13.390625 C 0.6875 -13.878906 0.8125 -14.46875 0.96875 -15.15625 C 1.125 -15.84375 1.351562 -16.453125 1.65625 -16.984375 C 1.96875 -17.523438 2.347656 -17.796875 2.796875 -17.796875 C 3.816406 -17.796875 4.316406 -17.453125 4.296875 -16.765625 C 4.273438 -16.078125 4.085938 -15.007812 3.734375 -13.5625 C 3.378906 -12.113281 3.203125 -10.257812 3.203125 -8 C 3.203125 -7.332031 3.289062 -6.53125 3.46875 -5.59375 C 3.644531 -4.664062 3.921875 -3.84375 4.296875 -3.125 C 4.671875 -2.414062 5.148438 -2.0625 5.734375 -2.0625 C 6.441406 -2.0625 7.25 -2.375 8.15625 -3 C 9.070312 -3.625 9.914062 -4.320312 10.6875 -5.09375 C 11.46875 -5.875 12.015625 -6.460938 12.328125 -6.859375 C 12.421875 -6.953125 12.664062 -7.253906 13.0625 -7.765625 C 13.457031 -8.273438 13.929688 -8.851562 14.484375 -9.5 C 15.046875 -10.144531 15.59375 -10.707031 16.125 -11.1875 C 16.65625 -11.675781 17.078125 -11.921875 17.390625 -11.921875 C 17.703125 -11.921875 17.859375 -11.65625 17.859375 -11.125 C 17.859375 -10.8125 17.644531 -10.332031 17.21875 -9.6875 C 16.800781 -9.050781 16.300781 -8.375 15.71875 -7.65625 C 15.144531 -6.945312 14.578125 -6.28125 14.015625 -5.65625 C 13.460938 -5.039062 13.054688 -4.597656 12.796875 -4.328125 C 12.265625 -3.796875 11.628906 -3.160156 10.890625 -2.421875 C 10.160156 -1.691406 9.347656 -1.0625 8.453125 -0.53125 C 7.566406 0 6.59375 0.265625 5.53125 0.265625 Z M 3.40625 -26.1875 C 3.40625 -26.945312 3.601562 -27.601562 4 -28.15625 C 4.394531 -28.707031 4.835938 -28.984375 5.328125 -28.984375 C 5.859375 -28.984375 6.300781 -28.648438 6.65625 -27.984375 C 7.28125 -26.742188 7.359375 -25.78125 6.890625 -25.09375 C 6.429688 -24.40625 5.867188 -24.0625 5.203125 -24.0625 C 4.753906 -24.0625 4.34375 -24.238281 3.96875 -24.59375 C 3.59375 -24.945312 3.40625 -25.476562 3.40625 -26.1875 Z M 3.40625 -26.1875 "/></g></g></g><g fill="#122620" fill-opacity="1"><g transform="translate(185.66082, 195.934923)"><g><path d="M 3.0625 8.203125 C 4.394531 8.203125 5.601562 7.722656 6.6875 6.765625 C 7.78125 5.804688 8.726562 4.679688 9.53125 3.390625 C 10.332031 2.109375 11 0.976562 11.53125 0 C 11.257812 0.09375 10.722656 0.335938 9.921875 0.734375 C 9.128906 1.128906 8.332031 1.550781 7.53125 2 C 6.726562 2.445312 6.171875 2.78125 5.859375 3 C 5.285156 3.351562 4.664062 3.816406 4 4.390625 C 3.332031 4.972656 2.765625 5.550781 2.296875 6.125 C 1.828125 6.707031 1.625 7.195312 1.6875 7.59375 C 1.757812 8 2.21875 8.203125 3.0625 8.203125 Z M 0.9375 -4.203125 C 0.9375 -5.890625 1 -7.960938 1.125 -10.421875 C 1.257812 -12.890625 1.457031 -15.488281 1.71875 -18.21875 C 1.988281 -20.957031 2.347656 -23.546875 2.796875 -25.984375 C 3.242188 -28.429688 3.773438 -30.429688 4.390625 -31.984375 C 4.753906 -32.867188 5.085938 -33.476562 5.390625 -33.8125 C 5.703125 -34.144531 5.992188 -34.3125 6.265625 -34.3125 C 6.578125 -34.3125 6.820312 -34.15625 7 -33.84375 C 7.175781 -33.539062 7.242188 -33.273438 7.203125 -33.046875 C 7.203125 -32.960938 7.144531 -32.726562 7.03125 -32.34375 C 6.914062 -31.96875 6.835938 -31.628906 6.796875 -31.328125 C 6.441406 -29.941406 6.0625 -28.128906 5.65625 -25.890625 C 5.257812 -23.648438 4.894531 -21.257812 4.5625 -18.71875 C 4.226562 -16.1875 3.960938 -13.785156 3.765625 -11.515625 C 3.566406 -9.253906 3.46875 -7.457031 3.46875 -6.125 L 4.9375 -8.53125 C 5.15625 -8.976562 5.382812 -9.390625 5.625 -9.765625 C 5.875 -10.140625 6.15625 -10.484375 6.46875 -10.796875 C 7.175781 -11.773438 7.972656 -12.539062 8.859375 -13.09375 C 9.753906 -13.644531 10.625 -13.921875 11.46875 -13.921875 C 12.882812 -13.921875 14.015625 -13.164062 14.859375 -11.65625 C 15.617188 -10.195312 15.929688 -8.890625 15.796875 -7.734375 C 15.660156 -6.578125 15.59375 -5.488281 15.59375 -4.46875 C 16.4375 -4.90625 17.113281 -5.257812 17.625 -5.53125 C 18.132812 -5.800781 18.632812 -6.085938 19.125 -6.390625 C 19.613281 -6.703125 20.257812 -7.148438 21.0625 -7.734375 C 21.457031 -8.046875 22 -8.488281 22.6875 -9.0625 C 23.375 -9.632812 24.03125 -10.175781 24.65625 -10.6875 C 25.28125 -11.207031 25.660156 -11.46875 25.796875 -11.46875 C 26.460938 -11.46875 26.828125 -11.320312 26.890625 -11.03125 C 26.953125 -10.738281 26.835938 -10.40625 26.546875 -10.03125 C 26.265625 -9.65625 25.96875 -9.320312 25.65625 -9.03125 C 25.34375 -8.738281 25.144531 -8.570312 25.0625 -8.53125 C 24.570312 -8 24.054688 -7.53125 23.515625 -7.125 C 22.984375 -6.726562 22.453125 -6.285156 21.921875 -5.796875 C 21.210938 -5.304688 20.3125 -4.738281 19.21875 -4.09375 C 18.132812 -3.445312 17.160156 -2.867188 16.296875 -2.359375 C 15.429688 -1.847656 14.929688 -1.503906 14.796875 -1.328125 C 14.660156 -1.109375 14.445312 -0.613281 14.15625 0.15625 C 13.875 0.9375 13.460938 1.847656 12.921875 2.890625 C 12.390625 3.941406 11.703125 4.988281 10.859375 6.03125 C 10.015625 7.070312 8.972656 7.972656 7.734375 8.734375 C 6.171875 9.710938 4.59375 10.203125 3 10.203125 C 2.0625 10.203125 1.257812 9.96875 0.59375 9.5 C -0.0703125 9.03125 -0.40625 8.285156 -0.40625 7.265625 C -0.40625 6.285156 0.0351562 5.316406 0.921875 4.359375 C 1.816406 3.410156 2.90625 2.5 4.1875 1.625 C 5.476562 0.757812 6.769531 -0.00390625 8.0625 -0.671875 C 9.351562 -1.335938 10.398438 -1.867188 11.203125 -2.265625 C 11.816406 -2.578125 12.203125 -2.773438 12.359375 -2.859375 C 12.515625 -2.953125 12.679688 -3.375 12.859375 -4.125 C 13.171875 -5.414062 13.300781 -6.640625 13.25 -7.796875 C 13.207031 -8.953125 13.019531 -9.894531 12.6875 -10.625 C 12.351562 -11.363281 11.859375 -11.734375 11.203125 -11.734375 C 10.347656 -11.734375 9.28125 -11 8 -9.53125 C 6.882812 -8.195312 5.992188 -6.75 5.328125 -5.1875 C 4.660156 -3.632812 4.113281 -2.300781 3.6875 -1.1875 C 3.269531 -0.0820312 2.84375 0.46875 2.40625 0.46875 C 1.820312 0.46875 1.429688 0.210938 1.234375 -0.296875 C 1.035156 -0.804688 0.9375 -1.425781 0.9375 -2.15625 C 0.9375 -2.894531 0.9375 -3.578125 0.9375 -4.203125 Z M 0.9375 -4.203125 "/></g></g></g><g fill="#122620" fill-opacity="1"><g transform="translate(209.318005, 195.934923)"><g><path d="M 3.0625 8.203125 C 4.394531 8.203125 5.601562 7.722656 6.6875 6.765625 C 7.78125 5.804688 8.726562 4.679688 9.53125 3.390625 C 10.332031 2.109375 11 0.976562 11.53125 0 C 11.257812 0.09375 10.722656 0.335938 9.921875 0.734375 C 9.128906 1.128906 8.332031 1.550781 7.53125 2 C 6.726562 2.445312 6.171875 2.78125 5.859375 3 C 5.285156 3.351562 4.664062 3.816406 4 4.390625 C 3.332031 4.972656 2.765625 5.550781 2.296875 6.125 C 1.828125 6.707031 1.625 7.195312 1.6875 7.59375 C 1.757812 8 2.21875 8.203125 3.0625 8.203125 Z M 0.9375 -4.203125 C 0.9375 -5.890625 1 -7.960938 1.125 -10.421875 C 1.257812 -12.890625 1.457031 -15.488281 1.71875 -18.21875 C 1.988281 -20.957031 2.347656 -23.546875 2.796875 -25.984375 C 3.242188 -28.429688 3.773438 -30.429688 4.390625 -31.984375 C 4.753906 -32.867188 5.085938 -33.476562 5.390625 -33.8125 C 5.703125 -34.144531 5.992188 -34.3125 6.265625 -34.3125 C 6.578125 -34.3125 6.820312 -34.15625 7 -33.84375 C 7.175781 -33.539062 7.242188 -33.273438 7.203125 -33.046875 C 7.203125 -32.960938 7.144531 -32.726562 7.03125 -32.34375 C 6.914062 -31.96875 6.835938 -31.628906 6.796875 -31.328125 C 6.441406 -29.941406 6.0625 -28.128906 5.65625 -25.890625 C 5.257812 -23.648438 4.894531 -21.257812 4.5625 -18.71875 C 4.226562 -16.1875 3.960938 -13.785156 3.765625 -11.515625 C 3.566406 -9.253906 3.46875 -7.457031 3.46875 -6.125 L 4.9375 -8.53125 C 5.15625 -8.976562 5.382812 -9.390625 5.625 -9.765625 C 5.875 -10.140625 6.15625 -10.484375 6.46875 -10.796875 C 7.175781 -11.773438 7.972656 -12.539062 8.859375 -13.09375 C 9.753906 -13.644531 10.625 -13.921875 11.46875 -13.921875 C 12.882812 -13.921875 14.015625 -13.164062 14.859375 -11.65625 C 15.617188 -10.195312 15.929688 -8.890625 15.796875 -7.734375 C 15.660156 -6.578125 15.59375 -5.488281 15.59375 -4.46875 C 16.4375 -4.90625 17.113281 -5.257812 17.625 -5.53125 C 18.132812 -5.800781 18.632812 -6.085938 19.125 -6.390625 C 19.613281 -6.703125 20.257812 -7.148438 21.0625 -7.734375 C 21.457031 -8.046875 22 -8.488281 22.6875 -9.0625 C 23.375 -9.632812 24.03125 -10.175781 24.65625 -10.6875 C 25.28125 -11.207031 25.660156 -11.46875 25.796875 -11.46875 C 26.460938 -11.46875 26.828125 -11.320312 26.890625 -11.03125 C 26.953125 -10.738281 26.835938 -10.40625 26.546875 -10.03125 C 26.265625 -9.65625 25.96875 -9.320312 25.65625 -9.03125 C 25.34375 -8.738281 25.144531 -8.570312 25.0625 -8.53125 C 24.570312 -8 24.054688 -7.53125 23.515625 -7.125 C 22.984375 -6.726562 22.453125 -6.285156 21.921875 -5.796875 C 21.210938 -5.304688 20.3125 -4.738281 19.21875 -4.09375 C 18.132812 -3.445312 17.160156 -2.867188 16.296875 -2.359375 C 15.429688 -1.847656 14.929688 -1.503906 14.796875 -1.328125 C 14.660156 -1.109375 14.445312 -0.613281 14.15625 0.15625 C 13.875 0.9375 13.460938 1.847656 12.921875 2.890625 C 12.390625 3.941406 11.703125 4.988281 10.859375 6.03125 C 10.015625 7.070312 8.972656 7.972656 7.734375 8.734375 C 6.171875 9.710938 4.59375 10.203125 3 10.203125 C 2.0625 10.203125 1.257812 9.96875 0.59375 9.5 C -0.0703125 9.03125 -0.40625 8.285156 -0.40625 7.265625 C -0.40625 6.285156 0.0351562 5.316406 0.921875 4.359375 C 1.816406 3.410156 2.90625 2.5 4.1875 1.625 C 5.476562 0.757812 6.769531 -0.00390625 8.0625 -0.671875 C 9.351562 -1.335938 10.398438 -1.867188 11.203125 -2.265625 C 11.816406 -2.578125 12.203125 -2.773438 12.359375 -2.859375 C 12.515625 -2.953125 12.679688 -3.375 12.859375 -4.125 C 13.171875 -5.414062 13.300781 -6.640625 13.25 -7.796875 C 13.207031 -8.953125 13.019531 -9.894531 12.6875 -10.625 C 12.351562 -11.363281 11.859375 -11.734375 11.203125 -11.734375 C 10.347656 -11.734375 9.28125 -11 8 -9.53125 C 6.882812 -8.195312 5.992188 -6.75 5.328125 -5.1875 C 4.660156 -3.632812 4.113281 -2.300781 3.6875 -1.1875 C 3.269531 -0.0820312 2.84375 0.46875 2.40625 0.46875 C 1.820312 0.46875 1.429688 0.210938 1.234375 -0.296875 C 1.035156 -0.804688 0.9375 -1.425781 0.9375 -2.15625 C 0.9375 -2.894531 0.9375 -3.578125 0.9375 -4.203125 Z M 0.9375 -4.203125 "/></g></g></g><g fill="#122620" fill-opacity="1"><g transform="translate(232.97519, 195.934923)"><g><path d="M 1.9375 26.71875 C 3.21875 26.71875 4.367188 26.335938 5.390625 25.578125 C 6.421875 24.828125 7.320312 23.921875 8.09375 22.859375 C 8.875 21.796875 9.53125 20.796875 10.0625 19.859375 C 10.550781 18.921875 11.09375 17.585938 11.6875 15.859375 C 12.289062 14.128906 12.859375 12.253906 13.390625 10.234375 C 13.921875 8.210938 14.375 6.300781 14.75 4.5 C 15.132812 2.695312 15.367188 1.285156 15.453125 0.265625 C 14.921875 0.578125 14.4375 0.910156 14 1.265625 L 7.46875 7.0625 C 7.289062 7.238281 7.109375 7.445312 6.921875 7.6875 C 6.742188 7.9375 6.523438 8.171875 6.265625 8.390625 C 5.203125 9.460938 4.242188 10.53125 3.390625 11.59375 C 2.546875 12.65625 1.703125 13.832031 0.859375 15.125 C 0.460938 15.707031 0.046875 16.441406 -0.390625 17.328125 C -0.835938 18.210938 -1.207031 19.15625 -1.5 20.15625 C -1.789062 21.15625 -1.898438 22.144531 -1.828125 23.125 C -1.765625 24.101562 -1.398438 24.945312 -0.734375 25.65625 C -0.148438 26.363281 0.738281 26.71875 1.9375 26.71875 Z M 3.46875 -5.859375 C 4.132812 -6.210938 4.910156 -6.910156 5.796875 -7.953125 C 6.679688 -9.003906 7.613281 -10.25 8.59375 -11.6875 C 9.570312 -13.132812 10.523438 -14.625 11.453125 -16.15625 C 12.390625 -17.6875 13.242188 -19.109375 14.015625 -20.421875 C 14.796875 -21.734375 15.410156 -22.789062 15.859375 -23.59375 C 16.390625 -24.476562 16.753906 -25.066406 16.953125 -25.359375 C 17.160156 -25.648438 17.617188 -25.796875 18.328125 -25.796875 C 18.679688 -25.796875 18.945312 -25.535156 19.125 -25.015625 C 19.300781 -24.503906 19.429688 -23.882812 19.515625 -23.15625 C 19.609375 -22.425781 19.65625 -21.726562 19.65625 -21.0625 C 19.65625 -20.394531 19.65625 -19.882812 19.65625 -19.53125 L 19.65625 -14.390625 C 19.65625 -13.285156 19.597656 -12.109375 19.484375 -10.859375 C 19.378906 -9.617188 19.28125 -8.460938 19.1875 -7.390625 C 19.101562 -6.328125 19.0625 -5.484375 19.0625 -4.859375 L 28.59375 -10.390625 C 28.8125 -10.523438 29.273438 -10.835938 29.984375 -11.328125 C 30.691406 -11.816406 31.289062 -12.0625 31.78125 -12.0625 C 32.1875 -12.0625 32.390625 -11.816406 32.390625 -11.328125 C 32.390625 -11.015625 32.019531 -10.59375 31.28125 -10.0625 C 30.550781 -9.53125 29.773438 -9.039062 28.953125 -8.59375 C 28.128906 -8.15625 27.585938 -7.84375 27.328125 -7.65625 C 25.941406 -6.90625 24.570312 -6.097656 23.21875 -5.234375 C 21.863281 -4.367188 20.546875 -3.488281 19.265625 -2.59375 C 18.953125 -2.375 18.78125 -2.1875 18.75 -2.03125 C 18.726562 -1.875 18.675781 -1.550781 18.59375 -1.0625 C 18.28125 1.113281 17.832031 3.578125 17.25 6.328125 C 16.675781 9.085938 15.96875 11.773438 15.125 14.390625 C 14.28125 17.015625 13.300781 19.210938 12.1875 20.984375 C 11.570312 22.191406 10.738281 23.382812 9.6875 24.5625 C 8.644531 25.738281 7.476562 26.710938 6.1875 27.484375 C 4.90625 28.265625 3.53125 28.65625 2.0625 28.65625 C 0.414062 28.65625 -0.957031 28.097656 -2.0625 26.984375 C -3.175781 25.878906 -3.734375 24.328125 -3.734375 22.328125 C -3.734375 20.859375 -3.351562 19.28125 -2.59375 17.59375 C -1.84375 15.90625 -0.835938 14.179688 0.421875 12.421875 C 1.691406 10.671875 3.0625 8.992188 4.53125 7.390625 C 6 5.796875 7.460938 4.34375 8.921875 3.03125 C 10.390625 1.71875 11.703125 0.640625 12.859375 -0.203125 C 13.078125 -0.421875 13.273438 -0.582031 13.453125 -0.6875 C 13.640625 -0.800781 13.863281 -0.953125 14.125 -1.140625 C 14.75 -1.671875 15.203125 -2.035156 15.484375 -2.234375 C 15.773438 -2.429688 15.945312 -2.820312 16 -3.40625 C 16.257812 -5.664062 16.5 -7.75 16.71875 -9.65625 C 16.945312 -11.570312 17.113281 -13.539062 17.21875 -15.5625 C 17.332031 -17.582031 17.390625 -19.859375 17.390625 -22.390625 C 17.253906 -22.304688 16.882812 -21.785156 16.28125 -20.828125 C 15.6875 -19.867188 15.007812 -18.753906 14.25 -17.484375 C 13.5 -16.222656 12.789062 -15.046875 12.125 -13.953125 C 11.457031 -12.867188 10.992188 -12.128906 10.734375 -11.734375 C 10.066406 -10.660156 9.253906 -9.398438 8.296875 -7.953125 C 7.335938 -6.515625 6.414062 -5.375 5.53125 -4.53125 C 4.6875 -3.78125 3.910156 -3.40625 3.203125 -3.40625 C 2.484375 -3.40625 1.878906 -3.75 1.390625 -4.4375 C 0.910156 -5.125 0.671875 -6.046875 0.671875 -7.203125 C 0.671875 -7.910156 0.757812 -8.796875 0.9375 -9.859375 C 1.113281 -10.929688 1.378906 -11.988281 1.734375 -13.03125 C 2.085938 -14.070312 2.5 -14.945312 2.96875 -15.65625 C 3.4375 -16.375 3.9375 -16.734375 4.46875 -16.734375 C 5.21875 -16.734375 5.59375 -16.460938 5.59375 -15.921875 C 5.59375 -15.390625 5.414062 -14.644531 5.0625 -13.6875 C 4.707031 -12.738281 4.351562 -11.597656 4 -10.265625 C 3.644531 -8.929688 3.46875 -7.460938 3.46875 -5.859375 Z M 3.46875 -5.859375 "/></g></g></g><g fill="#122620" fill-opacity="1"><g transform="translate(262.963183, 195.934923)"><g><path d="M 0 -6.734375 C 0 -7.660156 0.21875 -8.8125 0.65625 -10.1875 C 1.101562 -11.570312 1.726562 -12.941406 2.53125 -14.296875 C 3.332031 -15.648438 4.253906 -16.769531 5.296875 -17.65625 C 6.335938 -18.550781 7.4375 -19 8.59375 -19 C 9.664062 -19 10.53125 -18.6875 11.1875 -18.0625 C 11.851562 -17.4375 12.253906 -16.800781 12.390625 -16.15625 C 12.523438 -15.507812 12.304688 -15.1875 11.734375 -15.1875 C 11.285156 -15.1875 10.828125 -15.441406 10.359375 -15.953125 C 9.890625 -16.472656 9.347656 -16.734375 8.734375 -16.734375 C 8.242188 -16.734375 7.65625 -16.441406 6.96875 -15.859375 C 6.28125 -15.285156 5.445312 -14.15625 4.46875 -12.46875 C 4.019531 -11.75 3.609375 -10.820312 3.234375 -9.6875 C 2.859375 -8.5625 2.671875 -7.441406 2.671875 -6.328125 C 2.753906 -6.421875 2.785156 -6.453125 2.765625 -6.421875 C 2.742188 -6.398438 2.820312 -6.476562 3 -6.65625 L 3.53125 -7.46875 C 3.882812 -8 4.296875 -8.6875 4.765625 -9.53125 C 5.234375 -10.375 5.710938 -11.226562 6.203125 -12.09375 C 6.691406 -12.957031 7.132812 -13.6875 7.53125 -14.28125 C 7.925781 -14.882812 8.238281 -15.1875 8.46875 -15.1875 C 9.257812 -15.1875 9.722656 -14.898438 9.859375 -14.328125 C 9.992188 -13.753906 10.050781 -13.039062 10.03125 -12.1875 C 10.007812 -11.34375 10.085938 -10.5 10.265625 -9.65625 C 10.523438 -8.457031 10.929688 -7.582031 11.484375 -7.03125 C 12.046875 -6.476562 12.679688 -6.203125 13.390625 -6.203125 C 14.640625 -6.203125 16.019531 -6.957031 17.53125 -8.46875 C 18.144531 -9.039062 18.585938 -9.515625 18.859375 -9.890625 C 19.128906 -10.273438 19.484375 -10.710938 19.921875 -11.203125 C 20.234375 -11.640625 20.632812 -11.859375 21.125 -11.859375 C 21.613281 -11.859375 21.820312 -11.445312 21.75 -10.625 C 21.6875 -9.800781 20.8125 -8.570312 19.125 -6.9375 L 17.125 -5.328125 C 15.832031 -4.441406 14.585938 -4 13.390625 -4 C 12.285156 -4 11.320312 -4.332031 10.5 -5 C 9.675781 -5.664062 9.039062 -6.488281 8.59375 -7.46875 C 8.15625 -8.445312 7.9375 -9.398438 7.9375 -10.328125 C 7.625 -10.109375 7.265625 -9.617188 6.859375 -8.859375 C 6.460938 -8.109375 6.03125 -7.296875 5.5625 -6.421875 C 5.09375 -5.554688 4.613281 -4.800781 4.125 -4.15625 C 3.644531 -3.519531 3.160156 -3.203125 2.671875 -3.203125 C 1.421875 -3.203125 0.660156 -3.488281 0.390625 -4.0625 C 0.128906 -4.644531 0 -5.535156 0 -6.734375 Z M 0 -6.734375 "/></g></g></g><path fill="#fffef9" d="M 285.539062 308.089844 C 283.792969 309.390625 282.023438 310.660156 280.226562 311.890625 C 278.429688 313.125 276.609375 314.320312 274.765625 315.476562 C 272.921875 316.636719 271.054688 317.761719 269.164062 318.84375 C 267.277344 319.929688 265.367188 320.976562 263.433594 321.984375 C 261.503906 322.996094 259.554688 323.964844 257.585938 324.894531 C 255.617188 325.828125 253.628906 326.71875 251.625 327.570312 C 249.617188 328.421875 247.597656 329.234375 245.558594 330.003906 C 243.523438 330.777344 241.472656 331.507812 239.40625 332.199219 C 237.339844 332.886719 235.257812 333.535156 233.167969 334.140625 C 231.074219 334.75 228.972656 335.3125 226.855469 335.835938 C 224.742188 336.359375 222.617188 336.839844 220.484375 337.277344 C 218.351562 337.71875 216.207031 338.113281 214.058594 338.464844 C 211.910156 338.820312 209.753906 339.128906 207.589844 339.394531 C 205.429688 339.664062 203.261719 339.886719 201.09375 340.066406 C 198.921875 340.246094 196.746094 340.386719 194.570312 340.480469 C 192.394531 340.574219 190.21875 340.625 188.039062 340.632812 C 185.859375 340.636719 183.683594 340.601562 181.503906 340.523438 C 179.328125 340.441406 177.15625 340.320312 174.980469 340.152344 C 172.808594 339.988281 170.640625 339.777344 168.480469 339.527344 C 166.316406 339.273438 164.15625 338.976562 162.003906 338.640625 C 159.851562 338.300781 157.707031 337.917969 155.570312 337.496094 C 153.433594 337.070312 151.308594 336.605469 149.191406 336.097656 C 147.070312 335.585938 144.964844 335.035156 142.867188 334.441406 C 140.773438 333.851562 138.6875 333.214844 136.617188 332.539062 C 134.546875 331.863281 132.488281 331.148438 130.449219 330.390625 C 128.40625 329.632812 126.378906 328.832031 124.367188 327.996094 C 122.359375 327.15625 120.363281 326.277344 118.390625 325.359375 C 116.414062 324.441406 114.457031 323.484375 112.519531 322.488281 C 110.582031 321.492188 108.664062 320.457031 106.769531 319.386719 C 104.875 318.3125 103 317.203125 101.148438 316.058594 C 99.296875 314.910156 97.46875 313.726562 95.664062 312.507812 C 93.859375 311.285156 92.078125 310.03125 90.324219 308.742188 L 111.984375 279.296875 C 114.710938 281.304688 117.515625 283.199219 120.394531 284.984375 C 123.273438 286.765625 126.21875 288.433594 129.230469 289.980469 C 132.246094 291.527344 135.3125 292.957031 138.441406 294.257812 C 141.566406 295.5625 144.738281 296.742188 147.957031 297.792969 C 151.179688 298.84375 154.433594 299.761719 157.726562 300.554688 C 161.019531 301.34375 164.339844 302.003906 167.6875 302.53125 C 171.03125 303.058594 174.394531 303.449219 177.769531 303.707031 C 181.148438 303.964844 184.53125 304.089844 187.917969 304.078125 C 191.304688 304.066406 194.683594 303.921875 198.058594 303.640625 C 201.4375 303.359375 204.792969 302.945312 208.136719 302.394531 C 211.480469 301.847656 214.792969 301.164062 218.082031 300.351562 C 221.371094 299.539062 224.621094 298.597656 227.832031 297.523438 C 231.046875 296.453125 234.210938 295.253906 237.328125 293.929688 C 240.445312 292.605469 243.503906 291.15625 246.507812 289.589844 C 249.507812 288.019531 252.441406 286.335938 255.308594 284.53125 C 258.175781 282.730469 260.96875 280.816406 263.683594 278.789062 Z M 285.539062 308.089844 " fill-opacity="1" fill-rule="nonzero"/><g fill="#122620" fill-opacity="1"><g transform="translate(100.884545, 305.235228)"><g><path d="M 10.984375 -14.03125 L 17.59375 -10.125 C 19.175781 -9.195312 20.222656 -8.125 20.734375 -6.90625 C 21.242188 -5.695312 21.144531 -4.5 20.4375 -3.3125 C 19.9375 -2.457031 19.269531 -1.867188 18.4375 -1.546875 C 17.601562 -1.234375 16.710938 -1.21875 15.765625 -1.5 C 16.679688 -0.726562 17.226562 0.164062 17.40625 1.1875 C 17.582031 2.21875 17.367188 3.25 16.765625 4.28125 C 15.992188 5.582031 14.894531 6.3125 13.46875 6.46875 C 12.050781 6.625 10.476562 6.191406 8.75 5.171875 L 2 1.1875 Z M 12.203125 -10.234375 L 9.828125 -6.21875 L 13.734375 -3.90625 C 14.546875 -3.425781 15.289062 -3.226562 15.96875 -3.3125 C 16.644531 -3.40625 17.171875 -3.769531 17.546875 -4.40625 C 17.921875 -5.039062 17.984375 -5.660156 17.734375 -6.265625 C 17.484375 -6.878906 16.941406 -7.429688 16.109375 -7.921875 Z M 8.484375 -3.953125 L 5.90625 0.40625 L 9.8125 2.71875 C 10.832031 3.320312 11.734375 3.59375 12.515625 3.53125 C 13.296875 3.476562 13.894531 3.097656 14.3125 2.390625 C 14.707031 1.722656 14.734375 1.03125 14.390625 0.3125 C 14.054688 -0.394531 13.390625 -1.046875 12.390625 -1.640625 Z M 8.484375 -3.953125 "/></g></g></g><g fill="#122620" fill-opacity="1"><g transform="translate(136.991244, 323.182698)"><g><path d="M 14.296875 -0.171875 L 5.703125 -2.5625 L 3.015625 0.828125 L 0.03125 0.015625 L 12.265625 -14.9375 L 15.203125 -14.125 L 17.921875 4.953125 L 14.859375 4.109375 Z M 13.90625 -3.046875 L 12.796875 -11.484375 L 7.484375 -4.828125 Z M 13.90625 -3.046875 "/></g></g></g><g fill="#122620" fill-opacity="1"><g transform="translate(177.332713, 331.227215)"><g><path d="M 13.53125 0.0625 L 10.328125 -5.296875 C 10.160156 -5.285156 9.890625 -5.28125 9.515625 -5.28125 L 5.328125 -5.296875 L 5.296875 0.03125 L 2.328125 0.015625 L 2.421875 -17.65625 L 9.578125 -17.625 C 11.835938 -17.613281 13.585938 -17.078125 14.828125 -16.015625 C 16.066406 -14.960938 16.679688 -13.476562 16.671875 -11.5625 C 16.660156 -10.144531 16.335938 -8.945312 15.703125 -7.96875 C 15.066406 -7 14.15625 -6.289062 12.96875 -5.84375 L 16.90625 0.078125 Z M 5.34375 -7.96875 L 9.53125 -7.953125 C 12.394531 -7.941406 13.832031 -9.125 13.84375 -11.5 C 13.851562 -13.78125 12.425781 -14.925781 9.5625 -14.9375 L 5.375 -14.953125 Z M 5.34375 -7.96875 "/></g></g></g><g fill="#122620" fill-opacity="1"><g transform="translate(218.02546, 328.483846)"><g><path d="M 12.171875 -21.5625 L 14.859375 -11.5625 C 15.453125 -9.34375 15.257812 -7.410156 14.28125 -5.765625 C 13.3125 -4.128906 11.671875 -3 9.359375 -2.375 C 7.054688 -1.757812 5.070312 -1.914062 3.40625 -2.84375 C 1.738281 -3.78125 0.609375 -5.359375 0.015625 -7.578125 L -2.671875 -17.578125 L 0.203125 -18.34375 L 2.890625 -8.34375 C 3.265625 -6.914062 3.972656 -5.898438 5.015625 -5.296875 C 6.066406 -4.691406 7.296875 -4.582031 8.703125 -4.96875 C 10.097656 -5.34375 11.085938 -6.046875 11.671875 -7.078125 C 12.265625 -8.109375 12.367188 -9.34375 11.984375 -10.78125 L 9.296875 -20.78125 Z M 12.171875 -21.5625 "/></g></g></g><g fill="#122620" fill-opacity="1"><g transform="translate(257.511227, 314.702339)"><g><path d="M 9.828125 -10.390625 L 2.140625 -5.875 L 2.6875 -1.578125 L 0.03125 -0.015625 L -2.203125 -19.203125 L 0.421875 -20.734375 L 16.03125 -9.40625 L 13.296875 -7.8125 Z M 7.5 -12.09375 L 0.65625 -17.171875 L 1.765625 -8.71875 Z M 7.5 -12.09375 "/></g></g></g></svg>